<mxfile host="app.diagrams.net" modified="2020-12-04T09:04:10.305Z" agent="5.0 (Windows NT 6.1; Win64; x64) AppleWebKit/537.36 (KHTML, like Gecko) Chrome/86.0.4240.198 Safari/537.36" etag="3Wwf90hL1I48QFbgZzay" version="13.10.6" type="github">
  <diagram id="_um0zpNYhB0cbjPVs9ul" name="Page-1">
    <mxGraphModel dx="868" dy="425" grid="1" gridSize="10" guides="1" tooltips="1" connect="1" arrows="1" fold="1" page="1" pageScale="1" pageWidth="827" pageHeight="1169" math="0" shadow="0">
      <root>
        <mxCell id="0" />
        <mxCell id="1" parent="0" />
        <mxCell id="t-olntS8XiJm_Pk28zKW-1" style="edgeStyle=orthogonalEdgeStyle;rounded=0;orthogonalLoop=1;jettySize=auto;html=1;exitX=0.5;exitY=1;exitDx=0;exitDy=0;" edge="1" parent="1" source="t-olntS8XiJm_Pk28zKW-2" target="t-olntS8XiJm_Pk28zKW-16">
          <mxGeometry relative="1" as="geometry" />
        </mxCell>
        <mxCell id="t-olntS8XiJm_Pk28zKW-2" value="&lt;font style=&quot;font-size: 18px&quot;&gt;&lt;b&gt;计算阻力&lt;/b&gt;&lt;/font&gt;" style="shape=process;whiteSpace=wrap;html=1;backgroundOutline=1;fillColor=#FFCCCC;" vertex="1" parent="1">
          <mxGeometry x="310" y="460" width="120" height="60" as="geometry" />
        </mxCell>
        <mxCell id="t-olntS8XiJm_Pk28zKW-3" value="" style="rounded=0;whiteSpace=wrap;html=1;dashed=1;fillColor=#dae8fc;strokeColor=#6c8ebf;" vertex="1" parent="1">
          <mxGeometry x="150" y="400" width="110" height="320" as="geometry" />
        </mxCell>
        <mxCell id="t-olntS8XiJm_Pk28zKW-4" style="edgeStyle=orthogonalEdgeStyle;rounded=0;orthogonalLoop=1;jettySize=auto;html=1;exitX=1;exitY=0.5;exitDx=0;exitDy=0;entryX=0;entryY=0.5;entryDx=0;entryDy=0;" edge="1" parent="1" source="t-olntS8XiJm_Pk28zKW-5" target="t-olntS8XiJm_Pk28zKW-2">
          <mxGeometry relative="1" as="geometry" />
        </mxCell>
        <mxCell id="t-olntS8XiJm_Pk28zKW-5" value="&lt;font style=&quot;font-size: 18px&quot;&gt;&lt;b&gt;主辅机&lt;br&gt;数据&lt;/b&gt;&lt;/font&gt;" style="rounded=1;whiteSpace=wrap;html=1;fillColor=#CCFFFF;" vertex="1" parent="1">
          <mxGeometry x="170" y="440" width="70" height="60" as="geometry" />
        </mxCell>
        <mxCell id="t-olntS8XiJm_Pk28zKW-6" style="edgeStyle=orthogonalEdgeStyle;rounded=0;orthogonalLoop=1;jettySize=auto;html=1;exitX=1;exitY=0.5;exitDx=0;exitDy=0;entryX=0;entryY=0.5;entryDx=0;entryDy=0;" edge="1" parent="1" source="t-olntS8XiJm_Pk28zKW-7" target="t-olntS8XiJm_Pk28zKW-2">
          <mxGeometry relative="1" as="geometry" />
        </mxCell>
        <mxCell id="t-olntS8XiJm_Pk28zKW-7" value="&lt;font style=&quot;font-size: 18px&quot;&gt;&lt;b&gt;螺旋桨数据&lt;/b&gt;&lt;/font&gt;" style="rounded=1;whiteSpace=wrap;html=1;fillColor=#CCFFFF;" vertex="1" parent="1">
          <mxGeometry x="170" y="510" width="70" height="60" as="geometry" />
        </mxCell>
        <mxCell id="t-olntS8XiJm_Pk28zKW-8" style="edgeStyle=orthogonalEdgeStyle;rounded=0;orthogonalLoop=1;jettySize=auto;html=1;exitX=1;exitY=0.5;exitDx=0;exitDy=0;entryX=0;entryY=0.5;entryDx=0;entryDy=0;" edge="1" parent="1" source="t-olntS8XiJm_Pk28zKW-9" target="t-olntS8XiJm_Pk28zKW-18">
          <mxGeometry relative="1" as="geometry" />
        </mxCell>
        <mxCell id="t-olntS8XiJm_Pk28zKW-9" value="&lt;b&gt;&lt;font style=&quot;font-size: 18px&quot;&gt;油料&lt;br&gt;信息&lt;/font&gt;&lt;/b&gt;" style="rounded=1;whiteSpace=wrap;html=1;fillColor=#CCFFFF;" vertex="1" parent="1">
          <mxGeometry x="170" y="650" width="70" height="60" as="geometry" />
        </mxCell>
        <mxCell id="t-olntS8XiJm_Pk28zKW-10" value="" style="rounded=0;whiteSpace=wrap;html=1;dashed=1;fillColor=#dae8fc;strokeColor=#6c8ebf;" vertex="1" parent="1">
          <mxGeometry x="297" y="320" width="150" height="110" as="geometry" />
        </mxCell>
        <mxCell id="t-olntS8XiJm_Pk28zKW-11" style="edgeStyle=orthogonalEdgeStyle;rounded=0;orthogonalLoop=1;jettySize=auto;html=1;exitX=0.5;exitY=1;exitDx=0;exitDy=0;entryX=0.5;entryY=0;entryDx=0;entryDy=0;" edge="1" parent="1" source="t-olntS8XiJm_Pk28zKW-12" target="t-olntS8XiJm_Pk28zKW-2">
          <mxGeometry relative="1" as="geometry" />
        </mxCell>
        <mxCell id="t-olntS8XiJm_Pk28zKW-12" value="&lt;b&gt;&lt;font style=&quot;font-size: 18px&quot;&gt;船舶航速&lt;/font&gt;&lt;/b&gt;" style="rounded=1;whiteSpace=wrap;html=1;fillColor=#CCFFFF;" vertex="1" parent="1">
          <mxGeometry x="313" y="360" width="50" height="60" as="geometry" />
        </mxCell>
        <mxCell id="t-olntS8XiJm_Pk28zKW-13" style="edgeStyle=orthogonalEdgeStyle;rounded=0;orthogonalLoop=1;jettySize=auto;html=1;exitX=0.5;exitY=1;exitDx=0;exitDy=0;" edge="1" parent="1" source="t-olntS8XiJm_Pk28zKW-14">
          <mxGeometry relative="1" as="geometry">
            <mxPoint x="370" y="460" as="targetPoint" />
          </mxGeometry>
        </mxCell>
        <mxCell id="t-olntS8XiJm_Pk28zKW-14" value="&lt;b&gt;&lt;font style=&quot;font-size: 18px&quot;&gt;本地气象&lt;/font&gt;&lt;/b&gt;" style="rounded=1;whiteSpace=wrap;html=1;fillColor=#CCFFFF;" vertex="1" parent="1">
          <mxGeometry x="380" y="360" width="50" height="60" as="geometry" />
        </mxCell>
        <mxCell id="t-olntS8XiJm_Pk28zKW-15" style="edgeStyle=orthogonalEdgeStyle;rounded=0;orthogonalLoop=1;jettySize=auto;html=1;exitX=0.5;exitY=1;exitDx=0;exitDy=0;" edge="1" parent="1" source="t-olntS8XiJm_Pk28zKW-16" target="t-olntS8XiJm_Pk28zKW-18">
          <mxGeometry relative="1" as="geometry" />
        </mxCell>
        <mxCell id="t-olntS8XiJm_Pk28zKW-16" value="&lt;b&gt;&lt;font style=&quot;font-size: 18px&quot;&gt;计算主机&lt;br&gt;辅机功耗&lt;/font&gt;&lt;/b&gt;" style="shape=process;whiteSpace=wrap;html=1;backgroundOutline=1;fillColor=#FFCCCC;" vertex="1" parent="1">
          <mxGeometry x="310" y="560" width="120" height="60" as="geometry" />
        </mxCell>
        <mxCell id="t-olntS8XiJm_Pk28zKW-17" style="edgeStyle=orthogonalEdgeStyle;rounded=0;orthogonalLoop=1;jettySize=auto;html=1;exitX=1;exitY=0.5;exitDx=0;exitDy=0;entryX=0;entryY=0.5;entryDx=0;entryDy=0;" edge="1" parent="1" source="t-olntS8XiJm_Pk28zKW-18" target="t-olntS8XiJm_Pk28zKW-20">
          <mxGeometry relative="1" as="geometry" />
        </mxCell>
        <mxCell id="t-olntS8XiJm_Pk28zKW-18" value="&lt;font style=&quot;font-size: 18px&quot;&gt;&lt;b&gt;计算油耗&lt;/b&gt;&lt;/font&gt;" style="shape=process;whiteSpace=wrap;html=1;backgroundOutline=1;fillColor=#FFCCCC;" vertex="1" parent="1">
          <mxGeometry x="310" y="650" width="120" height="60" as="geometry" />
        </mxCell>
        <mxCell id="t-olntS8XiJm_Pk28zKW-19" style="edgeStyle=orthogonalEdgeStyle;rounded=0;orthogonalLoop=1;jettySize=auto;html=1;exitX=1;exitY=0.5;exitDx=0;exitDy=0;" edge="1" parent="1" source="t-olntS8XiJm_Pk28zKW-20" target="t-olntS8XiJm_Pk28zKW-27">
          <mxGeometry relative="1" as="geometry" />
        </mxCell>
        <mxCell id="t-olntS8XiJm_Pk28zKW-20" value="&lt;b&gt;&lt;font style=&quot;font-size: 18px&quot;&gt;计算排放量&lt;/font&gt;&lt;/b&gt;" style="shape=process;whiteSpace=wrap;html=1;backgroundOutline=1;fillColor=#FFCCCC;" vertex="1" parent="1">
          <mxGeometry x="480" y="650" width="120" height="60" as="geometry" />
        </mxCell>
        <mxCell id="t-olntS8XiJm_Pk28zKW-21" style="edgeStyle=orthogonalEdgeStyle;rounded=0;orthogonalLoop=1;jettySize=auto;html=1;exitX=1;exitY=0.5;exitDx=0;exitDy=0;entryX=0;entryY=0.5;entryDx=0;entryDy=0;" edge="1" parent="1" source="t-olntS8XiJm_Pk28zKW-22" target="t-olntS8XiJm_Pk28zKW-2">
          <mxGeometry relative="1" as="geometry" />
        </mxCell>
        <mxCell id="t-olntS8XiJm_Pk28zKW-22" value="&lt;font style=&quot;font-size: 18px&quot;&gt;&lt;b&gt;船舶&lt;br&gt;尺寸&lt;/b&gt;&lt;/font&gt;" style="rounded=1;whiteSpace=wrap;html=1;fillColor=#CCFFFF;" vertex="1" parent="1">
          <mxGeometry x="170" y="580" width="70" height="60" as="geometry" />
        </mxCell>
        <mxCell id="t-olntS8XiJm_Pk28zKW-23" value="&lt;b&gt;&lt;font style=&quot;font-size: 14px&quot;&gt;船舶数据库&lt;/font&gt;&lt;/b&gt;" style="text;html=1;strokeColor=none;fillColor=none;align=center;verticalAlign=middle;whiteSpace=wrap;rounded=0;" vertex="1" parent="1">
          <mxGeometry x="170" y="410" width="80" height="20" as="geometry" />
        </mxCell>
        <mxCell id="t-olntS8XiJm_Pk28zKW-24" style="edgeStyle=orthogonalEdgeStyle;rounded=0;orthogonalLoop=1;jettySize=auto;html=1;exitX=0.5;exitY=1;exitDx=0;exitDy=0;" edge="1" parent="1" source="t-olntS8XiJm_Pk28zKW-25" target="t-olntS8XiJm_Pk28zKW-20">
          <mxGeometry relative="1" as="geometry" />
        </mxCell>
        <mxCell id="t-olntS8XiJm_Pk28zKW-25" value="&lt;b style=&quot;font-size: 18px&quot;&gt;各污染物&lt;br&gt;排放因子&lt;/b&gt;" style="rounded=1;whiteSpace=wrap;html=1;fillColor=#CCFFFF;" vertex="1" parent="1">
          <mxGeometry x="480" y="560" width="120" height="60" as="geometry" />
        </mxCell>
        <mxCell id="t-olntS8XiJm_Pk28zKW-26" value="&lt;b&gt;&lt;font style=&quot;font-size: 14px&quot;&gt;AIS数据&lt;/font&gt;&lt;/b&gt;" style="text;html=1;strokeColor=none;fillColor=none;align=center;verticalAlign=middle;whiteSpace=wrap;rounded=0;" vertex="1" parent="1">
          <mxGeometry x="320" y="330" width="110" height="20" as="geometry" />
        </mxCell>
        <mxCell id="t-olntS8XiJm_Pk28zKW-27" value="&lt;b style=&quot;font-size: 18px&quot;&gt;污染物组份&lt;br&gt;排放量&lt;/b&gt;" style="rounded=1;whiteSpace=wrap;html=1;fillColor=#FFD966;" vertex="1" parent="1">
          <mxGeometry x="650" y="650" width="120" height="60" as="geometry" />
        </mxCell>
      </root>
    </mxGraphModel>
  </diagram>
</mxfile>
